<svg xmlns="http://www.w3.org/2000/svg" viewBox="0 0 477.42 469.28">
  <style>
    path { fill: #0f0f0f; }
    @media (prefers-color-scheme: dark) { path { fill: #ffffff; } }
  </style>
  <path d="M250.22,452.14l-4.66,17.13-4.3-16.97c-2.4-9.48-7.17-17.66-12.88-25.55-14.04-19.41-25.6-40.94-30.28-65.03-4.13,6.49-6.88,13.02-8.85,20.13l-10.3,37.2c-2.82,10.18-7.56,19.48-14.7,27.11l-6.42,6.85,1.8-12.77c1.24-8.82,1.19-17.46-.01-26.31l-4.34-21.59c-3.33-13.44-3.8-26.86-1.65-40.54l2.22-14.1c-4.91,3.81-8.68,7.72-12.15,12.42l-18.15,24.59c-6.74,9.13-20.83,22.45-30.57,28.53-4.47,2.79-9.01,4.81-14.23,6.95l9.19-13.71c4.48-6.68,7.35-14.1,8.99-22.07l8.29-40.11c2.83-13.7,7.53-26.21,14.29-38.88-4.95.73-9.16,2.26-13.27,4.6l-43.31,24.75c-11.94,6.82-26.63,9.11-40.45,8.59l12.34-7.71c10.8-6.74,19.17-15.87,26.28-26.39l19.13-28.36c6.66-9.87,15.15-17.75,24.39-25.29-3.45-.91-6.99-1.54-10.6-.96l-47.76,7.65c-12.75,2.04-25.25.98-37.47-2.6l-10.78-3.16,10.25-1.82c8.08-1.44,15.62-3.66,23.1-7.2,10.66-5.04,20.39-11.28,29.67-18.66,14.19-11.29,29.6-20.09,47.27-25.4-5.42-4-10.88-6.57-17.09-8.09l-39.9-9.76c-10.36-2.53-19.69-7.27-28.11-13.68l-8.81-6.7.71-.44,17.29,2.7c10.81,1.69,21.17-.09,31.78-2.27l29.09-5.96c13.29-2.72,26.56-2.79,40.46-1.23-3.23-6.05-8.27-10.17-13.71-13.86l-20.1-13.63c-11.06-7.5-27.44-21.6-33.08-33.28-1.67-3.46-2.76-6.78-3.94-10.69l9.8,7.41c10.24,7.75,22.22,12.05,34.82,14.39l28.37,5.27c14.99,2.78,28.8,8.03,42.12,16.15-1.1-7.51-3.11-14.2-6.71-20.54l-21.07-37.15c-5.17-9.12-9.2-18.32-9.83-28.95l-.21-13.83.33-.91c.06-.16.46.46.57.7l5.66,11.54c5.3,9.63,12.42,18,21.73,23.97l28.17,18.06c13.19,8.46,23.95,19.3,33.11,32.58,1.13-4.27,2.4-8.62,2.06-13.01l-3.44-44.4-.4-10.42c-.35-9.1.89-17.97,4.22-26.42l4.34-11.02.67,13.69c.5,10.1,3.02,19.9,8.56,28.46l20.19,31.14c8.35,12.87,12.8,27.04,15.22,42.44,4.28-4.52,6.68-9.37,8.78-14.55l5.57-17.34,6.25-21.36c1.86-6.35,4.44-12.12,7.52-17.95,4.11-7.78,9.72-14.25,16.64-19.59l4.18-3.22.58-.45c.11-.09.58-.15.54-.02l-.34,1.06-3.83,9.39c-3.21,7.86-4.79,16.17-3.63,24.87l6.85,51.26c1.6,11.95-.56,23.22-3.25,35.37,5.43-2.51,9.75-6.2,13.49-10.46l15.54-17.68,16.94-17.59c9.86-9.07,22.23-18.07,35.65-19.63l5.23-.61-6.78,5.6c-8.95,7.39-15.38,16.94-18.97,28.11l-12.89,40.11c-2.08,6.46-4.11,12.59-7.6,18.33l-8.19,13.43c-.08.13-.23.63-.09.66l.99.23c4.69-1.09,8.91-2.45,13.39-4.37l37.62-18.48c12.01-5.9,24.57-9.19,38.09-8.48l15.07,1.3-13.87,5.03c-10.41,3.77-18.62,10.46-25.37,19.11l-22.14,28.35c-9.65,11.69-20.85,21.55-34.09,28.88-.15.21-.46.68-.32.77l.69.44c6.97,2.22,13.92,2.75,21.34,2.51l39.66-1.64c11.15-.46,21.53,1.76,31.37,6.93l12.46,6.54.65.35c.14.07.65.51.5.53l-1.37.12-7.72-.2-12.55.07c-6,.03-11.91,1.6-17.28,4.49l-38.98,20.99c-11.67,6.15-23.87,10.26-36.88,12.32l-1.11.55c-.87.43,8.67,6.47,13.35,8.18l21.5,7.85,21.96,7.82,12.06,6.5c7.15,4.59,12.64,10.73,16.98,17.95l3.06,5.09c.34.42-.23.96-.7.7l-4.92-2.79c-6.68-3.78-13.64-6.14-21.32-7.2-8.86-1.22-17.46-1.19-26.43-.35l-27.19,2.53c-14.06.81-27.39-.71-41.23-4.39,2.27,4.05,5.22,6.62,8.25,9.48l27.05,25.56c11.35,10.72,23.62,24.28,27.35,39.52l2,11.32c-10.73-11.89-23.11-22.06-38.12-27.36l-11.51-4.07c-9.09-3.21-18.16-5.66-26.89-9.74l-.62-.29-.61-.28-.6-.28c-5.94-2.77-11.5-6.03-16.74-9.98l-7.54-5.68-.56.7c1.89,6.3,4.36,11.69,7.22,17.52l17.76,36.15c4.74,9.64,6.59,20.08,6.14,30.71l-.38,8.92-4.95-9.84c-4.71-9.38-11.13-17.59-19.37-24.17l-26.62-21.27-5.43-5c-6.92-6.38-12.34-13.65-18.05-21.38l-.77.61c-.14,6.48.11,12.63,1.11,19.07l4.88,31.39c1.49,9.61.8,19.11-1.41,28.83Z"/>
</svg>
